# xmcd
#
# Track frame offsets:
# 150
# 3595
# 20648
# 35740
# 55650
# 58683
# 74994
# 79569
# 96967
# 111765
# 114665
# 135429
# 150629
# 153796
# 170634
# 187123
# 189549
# 207022
# 223482
# 241104
# 259104
# 274374
# 293140
# 307907
#
# Disc length: 4341 seconds
#
#
# Revision: 0
# Processed by: cddbd v1.5.2PL0 Copyright (c) Steve Scherf et al.
# Submitted via: FreeRIP 2.951 
#
DISCID=6310f318
DTITLE=Jedi Mind Tricks - Violent By design - violent By design
DYEAR=2011
DGENRE=Alternative
TTITLE0=Intro
TTITLE1=Retalation
TTITLE2=Contra
TTITLE3=spech cobras
TTITLE4=Breath of God Interlude
TTITLE5=Death March
TTITLE6=Words From Mr. Len Part One
TTITLE7=I Against I
TTITLE8=Exertions
TTITLE9=Prophecy Interlude, The
TTITLE10=Heavenly Divine
TTITLE11=Sacrafice
TTITLE12=Permanant Midnight Interlude
TTITLE13=Deer Hunter, The
TTITLE14=Blood Reign
TTITLE15=Words From Mr. Len Part Two
TTITLE16=Gengis Khan
TTITLE17=Trinity
TTITLE18=Executioners Dream, The
TTITLE19=Muerte
TTITLE20=Heavenly Divine - (remix)
TTITLE21=Army of the Pharaohs
TTITLE22=Untitled
TTITLE23=Retaliation - (remix)
EXTD=
EXTT0=
EXTT1=
EXTT2=
EXTT3=
EXTT4=
EXTT5=
EXTT6=
EXTT7=
EXTT8=
EXTT9=
EXTT10=
EXTT11=
EXTT12=
EXTT13=
EXTT14=
EXTT15=
EXTT16=
EXTT17=
EXTT18=
EXTT19=
EXTT20=
EXTT21=
EXTT22=
EXTT23=
PLAYORDER=
